<?xml version="1.0" encoding="UTF-8" standalone="no"?><!-- Generator: Gravit.io --><svg xmlns="http://www.w3.org/2000/svg" xmlns:xlink="http://www.w3.org/1999/xlink" style="isolation:isolate" viewBox="0 0 200 200" width="200pt" height="200pt"><defs><clipPath id="_clipPath_bT49D6uDLAEHP6JSfAT5tmBDceuStOGH"><rect width="200" height="200"/></clipPath></defs><g clip-path="url(#_clipPath_bT49D6uDLAEHP6JSfAT5tmBDceuStOGH)"><circle vector-effect="non-scaling-stroke" cx="99.99999999999999" cy="99.99999999999999" r="100" fill="rgb(91,153,91)"/><path d=" M 0 100 C 8.705 96.737 21.096 95.761 25 86 C 27.92 80.161 35.75 56.25 46 56 C 56.75 53.5 65.5 75.75 70 86 C 77 102.25 83.56 119.22 95 120 C 112.25 121 114.75 101 119 86 C 119.153 85.55 118.854 86.454 119 86 C 121.889 74.331 123.696 57.997 138 56 C 147 55.5 152.5 78.5 156 86 C 159.25 98.75 163.25 119.25 173 120 C 183.25 118.75 193.5 99 202 97" fill="none" vector-effect="non-scaling-stroke" stroke-width="12" stroke="rgb(255,255,255)" stroke-linejoin="miter" stroke-linecap="square" stroke-miterlimit="2%"/></g></svg>
